<svg width="12" height="18" viewBox="0 0 12 18" fill="none" xmlns="http://www.w3.org/2000/svg">
<path d="M1.5484 5.12904C1.5484 6.00949 1.80948 6.87016 2.29863 7.60222C2.78778 8.33429 3.48303 8.90486 4.29645 9.24179C5.10988 9.57873 6.00495 9.66688 6.86848 9.49512C7.73201 9.32335 8.52521 8.89937 9.14778 8.27681C9.77035 7.65424 10.1943 6.86104 10.3661 5.99751C10.5379 5.13398 10.4497 4.23891 10.1128 3.42548C9.77583 2.61206 9.20526 1.91681 8.4732 1.42766C7.74113 0.938512 6.88046 0.677429 6.00001 0.677429C4.81979 0.678804 3.68831 1.14825 2.85377 1.98279C2.01923 2.81734 1.54978 3.94882 1.5484 5.12904ZM9.29033 5.12904C9.29033 5.77981 9.09736 6.41596 8.73582 6.95705C8.37427 7.49814 7.86039 7.91987 7.25916 8.1689C6.65794 8.41794 5.99636 8.4831 5.3581 8.35614C4.71984 8.22918 4.13356 7.91581 3.6734 7.45565C3.21324 6.99549 2.89987 6.40921 2.77291 5.77095C2.64596 5.13269 2.71112 4.47112 2.96015 3.86989C3.20919 3.26866 3.63092 2.75478 4.17201 2.39324C4.7131 2.03169 5.34925 1.83872 6.00001 1.83872C6.87236 1.83969 7.7087 2.18666 8.32555 2.80351C8.94239 3.42035 9.28936 4.25669 9.29033 5.12904Z" fill="#313638"/>
<path d="M6.83538e-07 15.1936C0.000637955 15.758 0.225151 16.2992 0.624284 16.6983C1.02342 17.0975 1.56457 17.322 2.12903 17.3226H9.87097C10.4354 17.322 10.9766 17.0975 11.3757 16.6983C11.7748 16.2992 11.9994 15.758 12 15.1936V13.6452C12.0008 12.3512 11.5209 11.103 10.6535 10.1428C10.4434 9.90756 10.1571 9.75402 9.84494 9.70921C9.53277 9.6644 9.21481 9.7312 8.94708 9.89783C8.05964 10.4397 7.03995 10.7264 6.00014 10.7264C4.96032 10.7263 3.94067 10.4395 3.0533 9.89745C2.78515 9.73144 2.46714 9.66505 2.15496 9.7099C1.84278 9.75475 1.55633 9.90799 1.34577 10.1428C0.47889 11.1033 -0.000660859 12.3513 6.83538e-07 13.6452V15.1936ZM1.16129 13.6452C1.1609 12.6387 1.53387 11.6678 2.20804 10.9204C2.22609 10.9008 2.24802 10.8852 2.27242 10.8745C2.29682 10.8638 2.32317 10.8584 2.3498 10.8584C2.38125 10.8581 2.41215 10.8666 2.43901 10.883C3.51135 11.5379 4.74351 11.8843 6 11.8843C7.25649 11.8843 8.48865 11.5379 9.56099 10.883C9.59795 10.8621 9.64087 10.8545 9.68276 10.8612C9.72464 10.8679 9.763 10.8887 9.79158 10.92C10.466 11.6674 10.8391 12.6385 10.8387 13.6452V15.1936C10.8385 15.4502 10.7364 15.6962 10.555 15.8776C10.3736 16.059 10.1276 16.1611 9.87097 16.1613H2.12903C1.87244 16.1611 1.62643 16.059 1.445 15.8776C1.26356 15.6962 1.16153 15.4502 1.16129 15.1936V13.6452Z" fill="#313638"/>
</svg>
