<svg width="17" height="17" viewBox="0 0 17 17" fill="none" xmlns="http://www.w3.org/2000/svg">
<path d="M2.24231 7.13251H5.14021C5.66843 7.13198 6.17487 6.9219 6.54839 6.54839C6.9219 6.17487 7.13198 5.66843 7.13251 5.14021V2.24231C7.13198 1.71408 6.9219 1.20764 6.54839 0.834126C6.17487 0.460613 5.66843 0.250537 5.14021 0.25H2.24231C1.71408 0.250537 1.20764 0.460613 0.834126 0.834126C0.460613 1.20764 0.250537 1.71408 0.25 2.24231V5.14021C0.250537 5.66843 0.460613 6.17487 0.834126 6.54839C1.20764 6.9219 1.71408 7.13198 2.24231 7.13251ZM1.33671 2.24231C1.33694 2.0022 1.43242 1.77198 1.6022 1.6022C1.77198 1.43242 2.0022 1.33693 2.24231 1.33671H5.14021C5.38032 1.33693 5.61053 1.43242 5.78031 1.6022C5.9501 1.77198 6.04558 2.0022 6.0458 2.24231V5.14021C6.04558 5.38032 5.9501 5.61053 5.78031 5.78031C5.61053 5.9501 5.38032 6.04558 5.14021 6.0458H2.24231C2.0022 6.04558 1.77198 5.9501 1.6022 5.78031C1.43242 5.61053 1.33694 5.38032 1.33671 5.14021V2.24231Z" fill="#313638"/>
<path d="M10.936 0.25C10.4078 0.250537 9.90137 0.460613 9.52785 0.834126C9.15434 1.20764 8.94426 1.71408 8.94373 2.24231V5.14021C8.94426 5.66843 9.15434 6.17487 9.52785 6.54839C9.90137 6.9219 10.4078 7.13198 10.936 7.13251H13.8339C14.3622 7.13198 14.8686 6.9219 15.2421 6.54839C15.6156 6.17487 15.8257 5.66843 15.8262 5.14021V2.24231C15.8257 1.71408 15.6156 1.20764 15.2421 0.834126C14.8686 0.460613 14.3622 0.250537 13.8339 0.25H10.936ZM14.7395 2.24231V5.14021C14.7393 5.38032 14.6438 5.61053 14.474 5.78031C14.3043 5.9501 14.074 6.04558 13.8339 6.0458H10.936C10.6959 6.04558 10.4657 5.9501 10.2959 5.78031C10.1261 5.61053 10.0307 5.38032 10.0304 5.14021V2.24231C10.0307 2.0022 10.1261 1.77198 10.2959 1.6022C10.4657 1.43242 10.6959 1.33693 10.936 1.33671H13.8339C14.074 1.33693 14.3043 1.43242 14.474 1.6022C14.6438 1.77198 14.7393 2.0022 14.7395 2.24231Z" fill="#313638"/>
<path d="M2.24231 15.8262H5.14021C5.66843 15.8257 6.17487 15.6156 6.54839 15.2421C6.9219 14.8686 7.13198 14.3622 7.13251 13.8339V10.936C7.13198 10.4078 6.9219 9.90137 6.54839 9.52785C6.17487 9.15434 5.66843 8.94426 5.14021 8.94373H2.24231C1.71408 8.94426 1.20764 9.15434 0.834126 9.52785C0.460613 9.90137 0.250537 10.4078 0.25 10.936V13.8339C0.250537 14.3622 0.460613 14.8686 0.834126 15.2421C1.20764 15.6156 1.71408 15.8257 2.24231 15.8262ZM1.33671 10.936C1.33694 10.6959 1.43242 10.4657 1.6022 10.2959C1.77198 10.1261 2.0022 10.0307 2.24231 10.0304H5.14021C5.38032 10.0307 5.61053 10.1261 5.78031 10.2959C5.9501 10.4657 6.04558 10.6959 6.0458 10.936V13.8339C6.04558 14.074 5.9501 14.3043 5.78031 14.474C5.61053 14.6438 5.38032 14.7393 5.14021 14.7395H2.24231C2.0022 14.7393 1.77198 14.6438 1.6022 14.474C1.43242 14.3043 1.33694 14.074 1.33671 13.8339V10.936Z" fill="#313638"/>
<path d="M13.2814 8.89062C13.0435 8.65311 12.7211 8.51971 12.385 8.51971C12.0489 8.51971 11.7265 8.65311 11.4886 8.89062L8.89068 11.4885C8.65317 11.7264 8.51978 12.0488 8.51978 12.3849C8.51978 12.7211 8.65317 13.0435 8.89068 13.2813L11.4886 15.8793C11.7265 16.1167 12.0489 16.25 12.385 16.25C12.7211 16.25 13.0435 16.1167 13.2814 15.8793L15.8793 13.2813C16.1168 13.0435 16.2502 12.7211 16.2502 12.3849C16.2502 12.0488 16.1168 11.7264 15.8793 11.4885L13.2814 8.89062ZM15.111 12.513L12.5131 15.1109C12.4962 15.1277 12.4763 15.1411 12.4543 15.1502C12.4323 15.1593 12.4088 15.164 12.385 15.164C12.3612 15.164 12.3377 15.1593 12.3157 15.1502C12.2937 15.1411 12.2738 15.1277 12.2569 15.1109L9.65901 12.513C9.64219 12.4962 9.62885 12.4762 9.61975 12.4542C9.61064 12.4323 9.60596 12.4087 9.60596 12.3849C9.60596 12.3612 9.61064 12.3376 9.61975 12.3156C9.62885 12.2937 9.64219 12.2737 9.65901 12.2569L12.2569 9.65895C12.2738 9.64213 12.2937 9.62879 12.3157 9.61968C12.3377 9.61058 12.3612 9.60589 12.385 9.60589C12.4088 9.60589 12.4323 9.61058 12.4543 9.61968C12.4763 9.62879 12.4962 9.64213 12.5131 9.65895L15.111 12.2569C15.1278 12.2737 15.1411 12.2937 15.1502 12.3156C15.1594 12.3376 15.164 12.3612 15.164 12.3849C15.164 12.4087 15.1594 12.4323 15.1502 12.4542C15.1411 12.4762 15.1278 12.4962 15.111 12.513Z" fill="#313638"/>
</svg>
