<svg width="24" height="21" viewBox="0 0 24 21" fill="none" xmlns="http://www.w3.org/2000/svg">
<path d="M23.7474 11.1987L15.6884 20.2036C15.3347 20.5988 14.7789 20.5988 14.4505 20.2036C14.0968 19.8084 14.0968 19.1874 14.4505 18.8204L21.0189 11.4809H0.884211C0.404211 11.4809 0 11.0293 0 10.4929C0 9.9566 0.404211 9.50494 0.884211 9.50494H20.9937L14.4253 2.16549C14.0716 1.77029 14.0716 1.14926 14.4253 0.782287C14.6021 0.584686 14.8295 0.5 15.0568 0.5C15.2842 0.5 15.5116 0.584686 15.6884 0.782287L23.7474 9.78723C23.9242 9.98483 24 10.2107 24 10.4929C24 10.7752 23.8989 11.0011 23.7474 11.1987Z" fill="white"/>
</svg>
