<svg width="20" height="20" viewBox="0 0 20 20" fill="none" xmlns="http://www.w3.org/2000/svg">
<path d="M1 0.79187H2.60222C3.5967 0.79187 4.37939 1.64823 4.29652 2.6335L3.53224 11.8048C3.5024 12.1601 3.54668 12.5178 3.66229 12.855C3.7779 13.1923 3.9623 13.5019 4.20383 13.7642C4.44535 14.0265 4.73872 14.2358 5.06535 14.3788C5.39198 14.5218 5.74476 14.5954 6.10131 14.5949H15.908C17.234 14.5949 18.3942 13.5083 18.4955 12.1916L18.9927 5.28545C19.1032 3.75689 17.943 2.51379 16.4052 2.51379H4.51751M7.4457 6.31676H18.4955M14.1216 19.2082C14.4269 19.2082 14.7196 19.0869 14.9355 18.871C15.1514 18.6552 15.2726 18.3624 15.2726 18.0571C15.2726 17.7519 15.1514 17.4591 14.9355 17.2433C14.7196 17.0274 14.4269 16.9061 14.1216 16.9061C13.8163 16.9061 13.5236 17.0274 13.3077 17.2433C13.0919 17.4591 12.9706 17.7519 12.9706 18.0571C12.9706 18.3624 13.0919 18.6552 13.3077 18.871C13.5236 19.0869 13.8163 19.2082 14.1216 19.2082ZM6.75509 19.2082C7.06036 19.2082 7.35313 19.0869 7.56898 18.871C7.78484 18.6552 7.90611 18.3624 7.90611 18.0571C7.90611 17.7519 7.78484 17.4591 7.56898 17.2433C7.35313 17.0274 7.06036 16.9061 6.75509 16.9061C6.44982 16.9061 6.15706 17.0274 5.9412 17.2433C5.72534 17.4591 5.60407 17.7519 5.60407 18.0571C5.60407 18.3624 5.72534 18.6552 5.9412 18.871C6.15706 19.0869 6.44982 19.2082 6.75509 19.2082Z" stroke="#313638" stroke-width="1.5" stroke-miterlimit="10" stroke-linecap="round" stroke-linejoin="round"/>
</svg>
