<svg width="16" height="16" viewBox="0 0 16 16" fill="none" xmlns="http://www.w3.org/2000/svg">
<path d="M8.20002 0.6875C6.75374 0.6875 5.33994 1.11637 4.13741 1.91988C2.93487 2.72339 1.99761 3.86544 1.44415 5.20163C0.890681 6.53781 0.745869 8.00811 1.02802 9.4266C1.31018 10.8451 2.00663 12.148 3.0293 13.1707C4.05197 14.1934 5.35493 14.8898 6.77342 15.172C8.1919 15.4541 9.6622 15.3093 10.9984 14.7559C12.3346 14.2024 13.4766 13.2651 14.2801 12.0626C15.0836 10.8601 15.5125 9.44628 15.5125 8C15.5105 6.06123 14.7394 4.20246 13.3685 2.83154C11.9976 1.46063 10.1388 0.689547 8.20002 0.6875ZM8.20002 14.1875C6.97624 14.1875 5.77995 13.8246 4.76242 13.1447C3.7449 12.4648 2.95183 11.4985 2.48351 10.3679C2.01519 9.23724 1.89266 7.99314 2.13141 6.79288C2.37015 5.59262 2.95946 4.49011 3.82479 3.62478C4.69013 2.75944 5.79264 2.17014 6.99289 1.93139C8.19315 1.69264 9.43725 1.81518 10.5679 2.2835C11.6985 2.75181 12.6648 3.54488 13.3447 4.56241C14.0246 5.57994 14.3875 6.77623 14.3875 8C14.3857 9.64046 13.7332 11.2132 12.5732 12.3732C11.4132 13.5331 9.84047 14.1856 8.20002 14.1875ZM5.95002 8C5.95002 8.47224 6.0986 8.9325 6.37472 9.3156C6.65084 9.6987 7.0405 9.9852 7.4885 10.1345C7.93651 10.2839 8.42014 10.2885 8.87089 10.1477C9.32165 10.0069 9.71667 9.72779 10 9.35C10.0896 9.23065 10.223 9.15179 10.3707 9.13076C10.5185 9.10972 10.6685 9.14825 10.7879 9.23785C10.9072 9.32746 10.9861 9.4608 11.0071 9.60855C11.0281 9.7563 10.9896 9.90636 10.9 10.0257C10.4749 10.5922 9.88233 11.0106 9.20623 11.2217C8.53013 11.4327 7.80476 11.4257 7.13286 11.2017C6.46095 10.9776 5.87657 10.5478 5.46247 9.97322C5.04837 9.39861 4.82554 8.70828 4.82554 8C4.82554 7.29172 5.04837 6.60139 5.46247 6.02678C5.87657 5.45217 6.46095 5.0224 7.13286 4.79833C7.80476 4.57427 8.53013 4.56727 9.20623 4.77832C9.88233 4.98937 10.4749 5.40778 10.9 5.9743C10.9444 6.03339 10.9767 6.10065 10.9951 6.17222C11.0134 6.2438 11.0175 6.31829 11.0071 6.39145C10.9967 6.46461 10.972 6.535 10.9344 6.5986C10.8967 6.66221 10.847 6.71778 10.7879 6.76215C10.7288 6.80652 10.6615 6.83881 10.5899 6.85718C10.5184 6.87556 10.4439 6.87966 10.3707 6.86924C10.2976 6.85883 10.2272 6.83411 10.1636 6.79649C10.1 6.75887 10.0444 6.7091 10 6.65C9.71667 6.27221 9.32165 5.99315 8.87089 5.85234C8.42014 5.71154 7.93651 5.71613 7.4885 5.86546C7.0405 6.0148 6.65084 6.3013 6.37472 6.6844C6.0986 7.0675 5.95002 7.52776 5.95002 8Z" fill="white"/>
</svg>
