<svg width="40" height="32" viewBox="0 0 40 32" fill="none" xmlns="http://www.w3.org/2000/svg">
<g id="Group">
<path id="Vector" d="M39.4389 13.0746L39.9668 2.02369C40.0255 0.942114 38.8523 -0.0454106 37.4444 0.00161434L23.718 0.471864C23.1901 0.518889 22.7208 0.659964 22.3688 0.942113L0.605935 18.3413C-0.215306 18.9997 -0.156645 20.1283 0.781916 20.8337L13.9804 31.4143C14.8603 32.1197 16.2682 32.2137 17.0894 31.5554L38.8523 14.1091C39.2042 13.8269 39.4389 13.4507 39.4389 13.0746ZM33.3382 7.33751C31.8131 7.33751 30.5812 6.34998 30.5812 5.12733C30.5812 3.90468 31.8131 2.91716 33.3382 2.91716C34.8634 2.91716 36.0953 3.90468 36.0953 5.12733C36.0953 6.34998 34.8634 7.33751 33.3382 7.33751Z" fill="#6E8D7D"/>
<path id="Vector_2" d="M26.2841 14.4129L12.8447 25.1512C12.4041 25.6104 11.3906 25.5398 10.5094 25.0453L2.09324 18.3338L1.12384 19.4641C0.639143 20.0293 0.859459 20.8771 1.6526 21.301L13.1532 27.7299C13.9463 28.1537 15.0038 28.0831 15.4885 27.4826L26.5925 14.6601C26.7688 14.4835 26.4603 14.2716 26.2841 14.4129Z" fill="white"/>
</g>
</svg>
