<svg width="39" height="34" viewBox="0 0 39 34" fill="none" xmlns="http://www.w3.org/2000/svg">
<path d="M33.0291 13.0591C31.6124 13.0187 29.791 12.8567 29.3052 12.7353C28.9814 12.4925 28.0909 11.5615 27.5647 10.9948C26.1885 9.49717 25.7028 9.01145 25.0147 8.84954L22.5861 8.36382C21.6146 8.20191 17.405 9.13288 16.2717 10.0234C15.3002 10.7924 13.7216 13.3425 13.2764 14.1115C12.8312 14.8401 13.074 15.7711 13.8026 16.1759C14.0455 16.3378 14.3288 16.3782 14.5717 16.3782C15.0979 16.3782 15.5836 16.1354 15.8669 15.6497C16.7574 14.1925 17.8098 12.6544 18.1336 12.4115C18.336 12.2496 18.9027 12.0877 19.5098 11.8853C18.8217 14.5568 17.8908 17.8354 17.6074 18.6449C17.3241 19.4545 16.5146 22.0855 16.1503 22.6926C14.7336 22.5712 12.224 21.7617 10.8883 21.2355C9.9573 20.8712 8.9049 21.3164 8.54061 22.2474C8.17632 23.1784 8.62156 24.2308 9.55253 24.595C9.99777 24.757 14.005 26.3355 16.4741 26.3355H16.5146C18.8622 26.3355 19.8337 23.5831 20.5218 21.3974C21.898 22.895 23.0313 24.3927 23.2337 24.9998C23.5575 26.1332 23.8004 29.7356 23.8813 31.7594C23.9218 32.7309 24.7314 33.5 25.7028 33.5C25.7433 33.5 25.7433 33.5 25.7838 33.5C26.7957 33.4595 27.5647 32.6095 27.5243 31.638C27.4838 31.0713 27.3219 25.8903 26.7552 23.9474C26.3909 22.6522 24.9337 20.8307 23.5575 19.2926L25.6623 13.302C26.8362 14.5568 27.4838 15.1639 28.0909 15.4473C29.0624 15.8925 31.5719 16.0139 32.9886 16.0544H33.0291C33.8387 16.0544 34.5268 15.4068 34.5268 14.5973C34.5268 13.7472 33.8791 13.0591 33.0291 13.0591Z" fill="white"/>
<path d="M28.0599 5.33683C28.4935 3.53278 27.3825 1.71879 25.5785 1.28517C23.7744 0.851557 21.9605 1.96251 21.5268 3.76656C21.0932 5.57061 22.2042 7.3846 24.0082 7.81822C25.8123 8.25183 27.6263 7.14088 28.0599 5.33683Z" fill="white"/>
<path d="M5.38347 9.7805H11.9812C12.5884 9.7805 13.1146 9.2543 13.1146 8.64715C13.1146 8.03999 12.5884 7.51379 11.9812 7.51379H5.38347C4.77632 7.51379 4.25012 8.03999 4.25012 8.64715C4.25012 9.2543 4.73584 9.7805 5.38347 9.7805Z" fill="white"/>
<path d="M3.23815 13.9497H9.83588C10.443 13.9497 10.9692 13.4235 10.9692 12.8163C10.9692 12.2092 10.443 11.683 9.83588 11.683H3.23815C2.631 11.683 2.1048 12.2092 2.1048 12.8163C2.1048 13.4235 2.631 13.9497 3.23815 13.9497Z" fill="white"/>
<path d="M8.86444 16.9854C8.86444 16.3782 8.33824 15.8521 7.73108 15.8521H1.13335C0.526199 15.8521 0 16.3782 0 16.9854C0 17.5926 0.526199 18.1188 1.13335 18.1188H7.73108C8.33824 18.1188 8.86444 17.5926 8.86444 16.9854Z" fill="white"/>
<path d="M38.1292 4.96376L34.5672 3.58755C34.4458 3.54707 34.2839 3.54707 34.1624 3.58755L30.641 5.00424C30.4386 5.08519 30.3171 5.28758 30.3171 5.48996V10.1448C30.3171 10.3472 30.4386 10.5496 30.641 10.6305L34.1624 12.0472C34.2434 12.0877 34.2839 12.0877 34.3648 12.0877C34.4458 12.0877 34.4863 12.0877 34.5672 12.0472L38.0887 10.6305C38.2911 10.5496 38.4125 10.3472 38.4125 10.1448V5.44948C38.453 5.2471 38.3316 5.04471 38.1292 4.96376ZM33.8791 10.7115L31.3695 9.74003V6.21854L33.8386 7.18999V10.7115H33.8791ZM34.4053 6.2995L32.3005 5.44948L34.4053 4.59947L36.5101 5.44948L34.4053 6.2995ZM37.4006 9.74003L34.9315 10.7115V7.23047L37.4006 6.25902V9.74003Z" fill="white"/>
</svg>
