<svg width="41" height="32" viewBox="0 0 41 32" fill="none" xmlns="http://www.w3.org/2000/svg">
<path id="Vector" d="M2.65111 22.2807H27.7133V5.70327H34.2333C35.0702 5.70327 35.8729 6.072 36.4646 6.72835C37.0564 7.3847 37.3889 8.27489 37.3889 9.20311V15.6704L40.5 18.9238V27.5255C40.5006 27.7616 40.4592 27.9954 40.3781 28.2137C40.2971 28.432 40.178 28.6303 40.0277 28.7975C39.8774 28.9646 39.6989 29.0972 39.5023 29.1877C39.3058 29.2782 39.095 29.3247 38.8822 29.3247H35.1178C34.8789 30.1048 34.4257 30.7823 33.8219 31.2622C33.2181 31.742 32.4939 32 31.7511 32C31.0083 32 30.2841 31.742 29.6803 31.2622C29.0765 30.7823 28.6233 30.1048 28.3844 29.3247H14.5356C14.2967 30.1048 13.8435 30.7823 13.2397 31.2622C12.6358 31.742 11.9117 32 11.1689 32C10.4261 32 9.70193 31.742 9.0981 31.2622C8.49428 30.7823 8.04111 30.1048 7.80222 29.3247H2.65111C2.41536 29.3247 2.18927 29.2209 2.02257 29.036C1.85587 28.8511 1.76222 28.6003 1.76222 28.3389V23.2764C1.76105 23.1461 1.78317 23.0169 1.82732 22.8961C1.87146 22.7754 1.93675 22.6655 2.01941 22.5729C2.10207 22.4803 2.20045 22.4068 2.30888 22.3567C2.41731 22.3065 2.53363 22.2807 2.65111 22.2807ZM35.0111 8.97143C35.0111 8.74264 34.9292 8.52323 34.7833 8.36145C34.6374 8.19968 34.4396 8.10879 34.2333 8.10879H30.3C30.0937 8.10879 29.8959 8.19968 29.75 8.36145C29.6042 8.52323 29.5222 8.74264 29.5222 8.97143V13.9008C29.5222 14.1296 29.6042 14.349 29.75 14.5108C29.8959 14.6725 30.0937 14.7634 30.3 14.7634H34.2378C34.4441 14.7634 34.6419 14.6725 34.7877 14.5108C34.9336 14.349 35.0156 14.1296 35.0156 13.9008L35.0111 8.97143ZM31.7489 30.1677C32.1772 30.173 32.5946 30.0174 32.9331 29.7262C33.2716 29.4351 33.5113 29.0255 33.6133 28.564C33.7153 28.1026 33.6735 27.6165 33.4948 27.1847C33.316 26.7529 33.0108 26.4009 32.6288 26.1859C32.2468 25.971 31.8105 25.9056 31.3908 26.0006C30.971 26.0956 30.5926 26.3452 30.3171 26.709C30.0415 27.0727 29.885 27.5292 29.873 28.0041C29.8611 28.479 29.9943 28.9445 30.2511 29.3247C30.4254 29.5845 30.652 29.7954 30.9128 29.9409C31.1736 30.0864 31.4614 30.1624 31.7533 30.1627L31.7489 30.1677ZM11.1667 30.1627C11.5951 30.1672 12.0123 30.0107 12.3504 29.7188C12.6885 29.4269 12.9275 29.0166 13.0286 28.5548C13.1298 28.0931 13.0871 27.6069 12.9074 27.1755C12.7278 26.7441 12.4218 26.3928 12.0392 26.1787C11.6567 25.9647 11.2201 25.9005 10.8005 25.9967C10.3809 26.0928 10.003 26.3437 9.72825 26.7083C9.4535 27.073 9.2981 27.53 9.28732 28.005C9.27654 28.4801 9.41103 28.9452 9.66889 29.3247C9.84276 29.5838 10.0686 29.7944 10.3286 29.9398C10.5886 30.0853 10.8755 30.1616 11.1667 30.1627ZM0.500001 1.6957V17.5682C0.500001 18.018 0.66108 18.4493 0.947802 18.7673C1.23452 19.0853 1.6234 19.2639 2.02889 19.2639H23.3356C23.741 19.2639 24.1299 19.0853 24.4166 18.7673C24.7034 18.4493 24.8644 18.018 24.8644 17.5682V1.6957C24.8644 1.24597 24.7034 0.814664 24.4166 0.496659C24.1299 0.178654 23.741 0 23.3356 0H2.02889C1.6234 0 1.23452 0.178654 0.947802 0.496659C0.66108 0.814664 0.500001 1.24597 0.500001 1.6957Z" fill="#6E8D7D"/>
</svg>
