<svg width="18" height="18" viewBox="0 0 18 18" fill="none" xmlns="http://www.w3.org/2000/svg">
<path d="M15.3647 2.63531C13.6631 0.936563 11.4047 0 9 0C6.59531 0 4.33688 0.936563 2.63531 2.63531C0.936563 4.33688 0 6.59531 0 9C0 11.4047 0.936563 13.6631 2.63531 15.3647C4.33688 17.0634 6.59531 18 9 18C11.4047 18 13.6631 17.0634 15.3647 15.3647C17.0634 13.6631 18 11.4047 18 9C18 6.59531 17.0634 4.33688 15.3647 2.63531ZM14.5688 14.5688C13.0809 16.0566 11.1038 16.875 9 16.875C6.89625 16.875 4.91906 16.0566 3.43125 14.5688C1.94344 13.0809 1.125 11.1038 1.125 9C1.125 6.89625 1.94344 4.91906 3.43125 3.43125C4.91906 1.94344 6.89625 1.125 9 1.125C11.1038 1.125 13.0809 1.94344 14.5688 3.43125C16.0566 4.91906 16.875 6.89625 16.875 9C16.875 11.1038 16.0566 13.0809 14.5688 14.5688ZM9.5625 12.9375C9.5625 13.2469 9.30937 13.5 9 13.5C8.69063 13.5 8.4375 13.2469 8.4375 12.9375C8.4375 12.6281 8.69063 12.375 9 12.375C9.30937 12.375 9.5625 12.6281 9.5625 12.9375ZM11.7366 7.21969C12.0572 8.62594 11.2866 10.0462 9.94219 10.5244C9.76781 10.5862 9.63563 10.7128 9.585 10.8647C9.50625 11.1009 9.28687 11.25 9.05062 11.25C8.99156 11.25 8.9325 11.2416 8.87344 11.2219C8.57812 11.1234 8.42063 10.8056 8.51906 10.5103C8.67938 10.0266 9.06187 9.64688 9.56531 9.46688C10.2684 9.21656 10.8647 8.45156 10.6397 7.47281C10.5019 6.87094 10.0041 6.37312 9.40219 6.23531C8.87344 6.11437 8.35594 6.22969 7.94531 6.55594C7.54313 6.87656 7.3125 7.3575 7.3125 7.875C7.3125 8.18719 7.06219 8.4375 6.75 8.4375C6.43781 8.4375 6.1875 8.18719 6.1875 7.875C6.1875 7.01438 6.57281 6.21281 7.24781 5.67562C7.92 5.13844 8.7975 4.94156 9.65531 5.13844C10.6847 5.37188 11.5031 6.19031 11.7366 7.21969Z" fill="#313638"/>
</svg>
