<svg width="13" height="13" viewBox="0 0 13 13" fill="none" xmlns="http://www.w3.org/2000/svg">
<path d="M6.875 3.60547C8.59766 3.60547 10.0195 5.02734 10.0195 6.75C10.0195 8.5 8.59766 9.89453 6.875 9.89453C5.125 9.89453 3.73047 8.5 3.73047 6.75C3.73047 5.02734 5.125 3.60547 6.875 3.60547ZM6.875 8.80078C7.99609 8.80078 8.89844 7.89844 8.89844 6.75C8.89844 5.62891 7.99609 4.72656 6.875 4.72656C5.72656 4.72656 4.82422 5.62891 4.82422 6.75C4.82422 7.89844 5.75391 8.80078 6.875 8.80078ZM10.8672 3.49609C10.8672 3.90625 10.5391 4.23438 10.1289 4.23438C9.71875 4.23438 9.39062 3.90625 9.39062 3.49609C9.39062 3.08594 9.71875 2.75781 10.1289 2.75781C10.5391 2.75781 10.8672 3.08594 10.8672 3.49609ZM12.9453 4.23438C13 5.24609 13 8.28125 12.9453 9.29297C12.8906 10.2773 12.6719 11.125 11.9609 11.8633C11.25 12.5742 10.375 12.793 9.39062 12.8477C8.37891 12.9023 5.34375 12.9023 4.33203 12.8477C3.34766 12.793 2.5 12.5742 1.76172 11.8633C1.05078 11.125 0.832031 10.2773 0.777344 9.29297C0.722656 8.28125 0.722656 5.24609 0.777344 4.23438C0.832031 3.25 1.05078 2.375 1.76172 1.66406C2.5 0.953125 3.34766 0.734375 4.33203 0.679688C5.34375 0.625 8.37891 0.625 9.39062 0.679688C10.375 0.734375 11.25 0.953125 11.9609 1.66406C12.6719 2.375 12.8906 3.25 12.9453 4.23438ZM11.6328 10.3594C11.9609 9.56641 11.8789 7.65234 11.8789 6.75C11.8789 5.875 11.9609 3.96094 11.6328 3.14062C11.4141 2.62109 11.0039 2.18359 10.4844 1.99219C9.66406 1.66406 7.75 1.74609 6.875 1.74609C5.97266 1.74609 4.05859 1.66406 3.26562 1.99219C2.71875 2.21094 2.30859 2.62109 2.08984 3.14062C1.76172 3.96094 1.84375 5.875 1.84375 6.75C1.84375 7.65234 1.76172 9.56641 2.08984 10.3594C2.30859 10.9062 2.71875 11.3164 3.26562 11.5352C4.05859 11.8633 5.97266 11.7812 6.875 11.7812C7.75 11.7812 9.66406 11.8633 10.4844 11.5352C11.0039 11.3164 11.4414 10.9062 11.6328 10.3594Z" fill="white"/>
</svg>
