<svg width="26" height="16" viewBox="0 0 26 16" fill="none" xmlns="http://www.w3.org/2000/svg">
<path d="M2.88556 16H23.0004C23.7671 16 24.4885 15.7024 25.0417 15.1589C25.5819 14.609 25.8795 13.8876 25.8795 13.1209C25.8795 13.0336 25.8439 12.9527 25.7824 12.8912C25.721 12.8298 25.6369 12.7942 25.5528 12.7942H23.1169V1.84068C23.1169 0.824908 22.292 0 21.2762 0H4.60979C3.59078 0 2.76264 0.824908 2.76264 1.84068V12.7909H0.326729C0.145572 12.7909 0 12.9365 0 13.1177C0 14.706 1.29397 16 2.88556 16ZM3.41609 1.84068C3.41609 1.18399 3.95309 0.653457 4.60979 0.653457H21.2729C21.9296 0.653457 22.4602 1.18722 22.4602 1.84068V12.7909H15.5536C15.3724 12.7909 15.2268 12.9365 15.2268 13.1177V14.072H10.6559V13.1177C10.6559 12.9365 10.5103 12.7909 10.3292 12.7909H3.41609V1.84068ZM3.08936 13.4476H10.0057V14.4019C10.0057 14.5831 10.1512 14.7287 10.3324 14.7287H15.5568C15.738 14.7287 15.8835 14.5831 15.8835 14.4019V13.4476H22.7934H25.2066C25.1387 13.9167 24.922 14.3534 24.5823 14.6963C24.1585 15.1169 23.5956 15.3465 23.0036 15.3465H2.88556C1.76628 15.3465 0.834614 14.5184 0.676102 13.4476H3.08936Z" fill="#313638"/>
</svg>
