<svg width="17" height="17" viewBox="0 0 17 17" fill="none" xmlns="http://www.w3.org/2000/svg">
<path d="M15.8076 5.74609C16.1514 6.02734 16.3701 6.43359 16.3701 6.90234V15.0898C16.3701 15.9336 15.6826 16.5898 14.8701 16.5898H1.87012C1.02637 16.5898 0.370117 15.9336 0.370117 15.0898V6.90234C0.370117 6.43359 0.557617 6.02734 0.901367 5.74609C1.02637 5.65234 4.37012 2.96484 5.12012 2.33984C5.83887 1.77734 6.99512 0.589844 8.37012 0.589844C9.71387 0.589844 10.9014 1.80859 11.5889 2.33984C12.3076 2.93359 15.6514 5.62109 15.8076 5.74609ZM14.8701 14.9023V6.99609C14.8701 6.93359 14.8389 6.87109 14.7764 6.83984C14.2764 6.43359 11.3701 4.12109 10.6514 3.52734C10.0889 3.08984 9.08887 2.08984 8.37012 2.08984C7.62012 2.08984 6.62012 3.05859 6.05762 3.52734C5.33887 4.12109 2.43262 6.43359 1.93262 6.83984C1.87012 6.87109 1.87012 6.93359 1.87012 6.99609V14.9023C1.87012 15.0273 1.93262 15.0898 2.05762 15.0898H14.6826C14.7764 15.0898 14.8701 15.0273 14.8701 14.9023ZM13.8701 9.05859C13.9951 9.21484 13.9639 9.46484 13.8076 9.58984C12.9014 10.3086 11.9326 11.0586 11.5889 11.3711C10.8701 11.9336 9.71387 13.0898 8.37012 13.0898C6.99512 13.0898 5.80762 11.9023 5.12012 11.3711C4.77637 11.0898 3.80762 10.3086 2.90137 9.58984C2.74512 9.46484 2.71387 9.21484 2.83887 9.05859L3.33887 8.46484C3.46387 8.30859 3.68262 8.27734 3.87012 8.43359C4.74512 9.15234 5.68262 9.90234 6.05762 10.1836C6.62012 10.6211 7.62012 11.5898 8.37012 11.5898C9.08887 11.5898 10.0889 10.6523 10.6514 10.1836C11.0264 9.90234 11.9639 9.15234 12.8389 8.43359C13.0264 8.27734 13.2451 8.30859 13.3701 8.46484L13.8701 9.05859Z" fill="white"/>
</svg>
