<svg width="44" height="32" viewBox="0 0 44 32" fill="none" xmlns="http://www.w3.org/2000/svg">
<path id="Vector" d="M0.666656 5.33333C0.666656 3.91885 1.22856 2.56229 2.22875 1.5621C3.22895 0.561903 4.5855 0 5.99999 0H38C39.4145 0 40.771 0.561903 41.7712 1.5621C42.7714 2.56229 43.3333 3.91885 43.3333 5.33333V18.6667H0.666656V5.33333ZM31.3333 8C30.9797 8 30.6406 8.14048 30.3905 8.39052C30.1405 8.64057 30 8.97971 30 9.33333V12C30 12.3536 30.1405 12.6928 30.3905 12.9428C30.6406 13.1929 30.9797 13.3333 31.3333 13.3333H36.6667C37.0203 13.3333 37.3594 13.1929 37.6095 12.9428C37.8595 12.6928 38 12.3536 38 12V9.33333C38 8.97971 37.8595 8.64057 37.6095 8.39052C37.3594 8.14048 37.0203 8 36.6667 8H31.3333ZM0.666656 24V26.6667C0.666656 28.0812 1.22856 29.4377 2.22875 30.4379C3.22895 31.4381 4.5855 32 5.99999 32H38C39.4145 32 40.771 31.4381 41.7712 30.4379C42.7714 29.4377 43.3333 28.0812 43.3333 26.6667V24H0.666656Z" fill="#6E8D7D"/>
</svg>
