<svg width="25" height="24" viewBox="0 0 25 24" fill="none" xmlns="http://www.w3.org/2000/svg">
<path d="M20.267 8.478C20.759 9.358 20.824 10.492 20.567 11.805C19.827 15.611 17.292 16.925 14.054 16.925H13.554C13.3624 16.9253 13.1771 16.9939 13.0316 17.1186C12.886 17.2432 12.7897 17.4157 12.76 17.605L12.719 17.825L12.089 21.818L12.057 21.988C12.0272 22.1772 11.9309 22.3496 11.7853 22.474C11.6397 22.5985 11.4545 22.6669 11.263 22.667H7.91998C7.85022 22.667 7.78129 22.6518 7.71794 22.6226C7.65459 22.5934 7.59831 22.5509 7.55298 22.4978C7.50766 22.4448 7.47435 22.3826 7.45536 22.3155C7.43637 22.2484 7.43215 22.1779 7.44298 22.109L7.61798 21H9.13698L10.086 14.98H11.472C16.15 14.98 19.221 12.777 20.267 8.478ZM17.307 3.388C18.069 4.256 18.291 5.198 18.06 6.673C18.04 6.796 18.02 6.913 17.997 7.033C17.262 10.806 14.909 12.479 11.042 12.479H9.15698C8.52698 12.479 7.98398 12.893 7.80398 13.481L7.78898 13.479L6.85898 19.373H3.32298C3.31545 19.3731 3.30799 19.3716 3.30114 19.3685C3.29428 19.3654 3.2882 19.3608 3.28332 19.355C3.27844 19.3493 3.2749 19.3426 3.27294 19.3353C3.27098 19.328 3.27065 19.3204 3.27198 19.313L5.86998 2.803C5.90501 2.57934 6.01876 2.37555 6.19073 2.22833C6.3627 2.0811 6.5816 2.00013 6.80798 2H12.783C14.966 2 16.5 2.469 17.307 3.388Z" fill="white"/>
</svg>
