<svg width="11" height="16" viewBox="0 0 11 16" fill="none" xmlns="http://www.w3.org/2000/svg">
<path d="M9.32259 16H1.3444C0.60319 16 0 15.397 0 14.6556V1.34424C0 0.603027 0.60319 0 1.3444 0H9.32259C10.0638 0 10.6667 0.603027 10.6667 1.34424V14.6556C10.6667 15.397 10.0638 16 9.32259 16ZM1.3444 0.666667C0.970703 0.666667 0.666667 0.970703 0.666667 1.34424V14.6556C0.666667 15.0293 0.970703 15.3333 1.3444 15.3333H9.32259C9.69596 15.3333 10 15.0293 10 14.6556V1.34424C10 0.970703 9.69596 0.666667 9.32259 0.666667H1.3444Z" fill="black"/>
<path d="M10.3334 2.66669H0.333374V3.33335H10.3334V2.66669Z" fill="black"/>
<path d="M10.3334 12.6667H0.333374V13.3334H10.3334V12.6667Z" fill="black"/>
<path d="M6.33362 14H4.33362V14.6667H6.33362V14Z" fill="black"/>
</svg>
