<svg width="25" height="24" viewBox="0 0 25 24" fill="none" xmlns="http://www.w3.org/2000/svg">
<path d="M12.201 6.65404C13.0106 7.28958 13.6651 8.10099 14.1149 9.02684C14.5646 9.95269 14.7979 10.9687 14.797 11.998C14.7978 13.0274 14.5644 14.0435 14.1144 14.9694C13.6645 15.8952 13.0098 16.7066 12.2 17.342C11.3903 16.7065 10.7358 15.8951 10.2861 14.9692C9.8363 14.0434 9.60305 13.0273 9.60397 11.998C9.60305 10.9687 9.8363 9.95269 10.2861 9.02684C10.7358 8.10099 11.3903 7.28958 12.2 6.65404H12.201ZM11.331 6.07204C10.4741 6.80371 9.78632 7.7127 9.31514 8.73619C8.84397 9.75969 8.60064 10.8733 8.60197 12C8.60074 13.1264 8.84402 14.2396 9.31502 15.2627C9.78601 16.2858 10.4735 17.1945 11.33 17.926C10.2954 18.5068 9.12675 18.8067 7.94031 18.7959C6.75387 18.7851 5.59092 18.4639 4.56707 17.8644C3.54322 17.2648 2.69412 16.4077 2.10417 15.3783C1.51423 14.3489 1.20398 13.183 1.20428 11.9965C1.20459 10.81 1.51542 9.64424 2.10588 8.61511C2.69635 7.58599 3.54588 6.72932 4.57004 6.13027C5.5942 5.53123 6.7573 5.21066 7.94375 5.20045C9.13019 5.19023 10.2986 5.49072 11.333 6.07204H11.331ZM13.073 17.926C13.9294 17.1945 14.6168 16.2858 15.0878 15.2627C15.5588 14.2395 15.8021 13.1264 15.801 12C15.8022 10.8732 15.5587 9.75957 15.0873 8.73606C14.616 7.71256 13.928 6.80361 13.071 6.07204C14.1053 5.49072 15.2737 5.19023 16.4602 5.20045C17.6466 5.21066 18.8097 5.53123 19.8339 6.13027C20.8581 6.72932 21.7076 7.58599 22.2981 8.61511C22.8885 9.64424 23.1994 10.81 23.1997 11.9965C23.2 13.183 22.8897 14.3489 22.2998 15.3783C21.7098 16.4077 20.8607 17.2648 19.8369 17.8644C18.813 18.4639 17.6501 18.7851 16.4636 18.7959C15.2772 18.8067 14.1076 18.5068 13.073 17.926Z" fill="white"/>
</svg>
