<svg width="25" height="24" viewBox="0 0 25 24" fill="none" xmlns="http://www.w3.org/2000/svg">
<g clip-path="url(#clip0_41_1910)">
<path d="M22.421 15.7681L22.197 14.6431H19.683L19.283 15.7601L17.268 15.7641C18.563 12.6511 19.525 10.3461 20.152 8.84712C20.316 8.45512 20.607 8.25512 21.036 8.25812C21.364 8.26112 21.899 8.26112 22.642 8.25912L24.2 15.7651L22.421 15.7681ZM20.249 13.1021H21.869L21.264 10.2821L20.249 13.1021ZM7.25995 8.25712L9.28595 8.25912L6.15395 15.7691L4.10295 15.7671C3.5872 13.7834 3.07787 11.7981 2.57495 9.81112C2.47495 9.41512 2.27695 9.13812 1.89595 9.00712C1.33328 8.81853 0.767891 8.63817 0.199951 8.46612L0.199951 8.25912H3.43695C3.99695 8.25912 4.32395 8.53012 4.42895 9.08612C4.53495 9.64312 4.80095 11.0621 5.22895 13.3401L7.25995 8.25712ZM12.07 8.25912L10.469 15.7681L8.53995 15.7651L10.14 8.25712L12.07 8.25912ZM15.98 8.12012C16.557 8.12012 17.284 8.30012 17.702 8.46612L17.364 10.0221C16.986 9.87012 16.364 9.66512 15.841 9.67212C15.081 9.68512 14.611 10.0041 14.611 10.3101C14.611 10.8081 15.427 11.0591 16.267 11.6031C17.225 12.2231 17.3519 12.7801 17.34 13.3861C17.327 14.6411 16.267 15.8801 14.031 15.8801C13.011 15.8651 12.643 15.7801 11.811 15.4841L12.163 13.8601C13.01 14.2141 13.369 14.3271 14.093 14.3271C14.756 14.3271 15.325 14.0591 15.33 13.5921C15.334 13.2601 15.13 13.0951 14.386 12.6851C13.642 12.2741 12.598 11.7061 12.612 10.5631C12.629 9.10112 14.014 8.12012 15.98 8.12012Z" fill="white"/>
</g>
<defs>
<clipPath id="clip0_41_1910">
<rect width="24" height="24" fill="white" transform="translate(0.199951)"/>
</clipPath>
</defs>
</svg>
