<svg width="21" height="19" viewBox="0 0 21 19" fill="none" xmlns="http://www.w3.org/2000/svg">
<path d="M19.8523 17.5509L15.6237 13.537C16.8674 12.1204 17.6136 10.2315 17.6136 8.26389C17.6136 3.69907 13.7168 0 8.90784 0C4.09891 0 0.202026 3.69907 0.202026 8.26389C0.202026 12.8287 4.09891 16.5278 8.90784 16.5278C10.9806 16.5278 12.9705 15.8194 14.463 14.6389L18.6915 18.6528C18.8573 18.8102 19.1061 18.8889 19.2719 18.8889C19.4377 18.8889 19.6865 18.8102 19.8523 18.6528C20.1839 18.338 20.1839 17.8657 19.8523 17.5509ZM8.90784 14.9537C5.01095 14.9537 1.86028 11.963 1.86028 8.26389C1.86028 4.56482 5.01095 1.57407 8.90784 1.57407C12.8047 1.57407 15.9554 4.56482 15.9554 8.26389C15.9554 11.963 12.8047 14.9537 8.90784 14.9537Z" fill="#313638"/>
<path d="M9.32241 2.83325C5.923 2.83325 3.18689 5.43047 3.18689 8.65733C3.18689 9.12955 3.51854 9.44436 4.01601 9.44436C4.51349 9.44436 4.84514 9.12955 4.84514 8.65733C4.84514 6.29622 6.83504 4.40733 9.32241 4.40733C9.81989 4.40733 10.1515 4.09251 10.1515 3.62029C10.1515 3.14807 9.73697 2.83325 9.32241 2.83325Z" fill="#313638"/>
</svg>
