<svg width="26" height="26" viewBox="0 0 26 26" fill="none" xmlns="http://www.w3.org/2000/svg">
<path d="M25.675 24.1583L20.15 18.6333C21.775 16.6833 22.75 14.0833 22.75 11.375C22.75 5.09167 17.6583 0 11.375 0C5.09167 0 0 5.09167 0 11.375C0 17.6583 5.09167 22.75 11.375 22.75C14.0833 22.75 16.6833 21.775 18.6333 20.15L24.1583 25.675C24.375 25.8917 24.7 26 24.9167 26C25.1333 26 25.4583 25.8917 25.675 25.675C26.1083 25.2417 26.1083 24.5917 25.675 24.1583ZM11.375 20.5833C6.28333 20.5833 2.16667 16.4667 2.16667 11.375C2.16667 6.28333 6.28333 2.16667 11.375 2.16667C16.4667 2.16667 20.5833 6.28333 20.5833 11.375C20.5833 16.4667 16.4667 20.5833 11.375 20.5833Z" fill="white"/>
<path d="M11.9167 3.89996C7.47499 3.89996 3.89999 7.47496 3.89999 11.9166C3.89999 12.5666 4.33333 13 4.98333 13C5.63333 13 6.06666 12.5666 6.06666 11.9166C6.06666 8.66663 8.66666 6.06663 11.9167 6.06663C12.5667 6.06663 13 5.6333 13 4.9833C13 4.3333 12.4583 3.89996 11.9167 3.89996Z" fill="white"/>
</svg>
