<svg width="41" height="32" viewBox="0 0 41 32" fill="none" xmlns="http://www.w3.org/2000/svg">
<path id="Vector" d="M18.5345 -0.147949C17.4539 -0.147949 16.5775 0.728358 16.5775 1.80897V10.9893C16.5775 12.0699 17.4539 12.9462 18.5345 12.9462H19.6803V17.4373L24.1714 12.9462H38.2366C39.3172 12.9462 40.1935 12.0699 40.1935 10.9893V1.80897C40.1935 0.728358 39.3172 -0.147949 38.2366 -0.147949H18.5345ZM5.75416 2.09697C5.48462 2.09697 5.21385 2.20036 5.00832 2.4059L4.94555 2.46867C4.94924 2.46497 4.95293 2.46005 4.95785 2.45636L3.42308 3.99113C2.70308 4.71113 2.13201 5.5382 1.70862 6.44897C1.66678 6.54005 1.62616 6.63236 1.58678 6.72467C1.56955 6.76405 1.55478 6.80467 1.53878 6.84405C1.47847 6.99174 1.42185 7.13944 1.36893 7.29082C1.3357 7.38682 1.3037 7.48282 1.27293 7.58128C1.22001 7.75113 1.17324 7.92344 1.12893 8.09697C1.12278 8.12282 1.11539 8.14867 1.10924 8.17451C1.08462 8.27544 1.06247 8.37636 1.04032 8.47728C1.01939 8.57944 0.998469 8.68159 0.980008 8.78497C0.977546 8.8022 0.975085 8.81944 0.971392 8.83544C0.922162 9.11851 0.884008 9.40528 0.856931 9.69697C0.8557 9.70805 0.854469 9.71913 0.853238 9.73021C0.852008 9.73882 0.852008 9.7462 0.852008 9.75482C0.788008 10.4957 0.794162 11.2662 0.8717 12.0576C0.882777 12.1721 0.895085 12.2865 0.909854 12.4022C1.25078 15.1665 2.44585 18.1745 4.49385 21.1222C5.43293 22.4736 6.55047 23.8114 7.84647 25.1087C9.49693 26.7579 11.2139 28.1191 12.9394 29.1887C13.0625 29.265 13.1855 29.3401 13.3086 29.4139C13.5548 29.5604 13.8022 29.7019 14.0483 29.8373C14.1714 29.905 14.2945 29.9714 14.4175 30.0354C15.4034 30.5524 16.3855 30.9745 17.3542 31.3019C17.4748 31.3425 17.5954 31.3819 17.716 31.42C17.8366 31.4582 17.9572 31.4939 18.0766 31.5296C18.1295 31.5456 18.1825 31.5591 18.2354 31.5739C18.3019 31.5924 18.3695 31.6121 18.436 31.6305C18.5554 31.6625 18.6748 31.6933 18.7929 31.7216C18.9123 31.7511 19.0305 31.7782 19.1486 31.8041C19.2668 31.8299 19.3849 31.8545 19.5019 31.8779C23.2631 32.6176 26.6563 31.8385 28.9615 29.5333L30.4963 27.9985C30.4926 28.0022 30.4902 28.0047 30.4865 28.0084L30.5455 27.9493C30.6231 27.8717 30.6859 27.7856 30.7339 27.6933C30.7499 27.6625 30.7646 27.6317 30.7769 27.5997C30.7892 27.5677 30.8015 27.5357 30.8102 27.5037C30.82 27.4717 30.8274 27.4385 30.8348 27.4053C30.8409 27.3721 30.8459 27.3388 30.8495 27.3056C30.8532 27.2724 30.8545 27.2379 30.8545 27.2047C30.8545 27.1714 30.8532 27.137 30.8495 27.1037C30.8459 27.0705 30.8422 27.0361 30.8348 27.0028C30.7966 26.8034 30.6994 26.6127 30.5455 26.4588L24.6489 20.5622C24.34 20.2533 23.8871 20.1757 23.5055 20.3308C23.4415 20.3567 23.38 20.3887 23.3222 20.4268C23.2631 20.465 23.2077 20.5105 23.156 20.5622L19.1683 24.5511C16.7979 23.3253 15.1954 22.3899 12.8803 20.0748C10.5652 17.7597 9.62985 16.1573 8.40401 13.7868L12.3929 9.7979C12.8052 9.38559 12.8052 8.71728 12.3929 8.30497L6.49632 2.40836C6.29078 2.20282 6.02001 2.09944 5.75047 2.09944L5.75416 2.09697Z" fill="#6E8D7D"/>
</svg>
