<svg width="13" height="15" viewBox="0 0 13 15" fill="none" xmlns="http://www.w3.org/2000/svg">
<path d="M12.25 6.49219H12.2227C10.9648 6.49219 9.81641 6.10938 8.88672 5.42578V10.3203C8.88672 12.7812 6.89062 14.75 4.42969 14.75C1.96875 14.75 0 12.7812 0 10.3203C0 7.85938 1.96875 5.86328 4.42969 5.86328C4.64844 5.86328 4.83984 5.89062 5.05859 5.91797V8.37891C4.83984 8.29688 4.64844 8.26953 4.42969 8.26953C3.30859 8.26953 2.37891 9.19922 2.37891 10.3203C2.37891 11.4414 3.30859 12.3711 4.42969 12.3711C5.55078 12.3711 6.48047 11.4414 6.48047 10.3203V0.75H8.88672C8.88672 0.777344 8.88672 0.777344 8.88672 0.804688C8.88672 0.996094 8.88672 1.1875 8.94141 1.37891C9.10547 2.28125 9.65234 3.07422 10.418 3.56641C10.9375 3.92188 11.5664 4.11328 12.2227 4.11328C12.2227 4.11328 12.2227 4.11328 12.25 4.11328V6.49219Z" fill="white"/>
</svg>
