<svg width="16" height="11" viewBox="0 0 16 11" fill="none" xmlns="http://www.w3.org/2000/svg">
<path d="M15.2617 2.16797C15.5898 3.31641 15.5898 5.77734 15.5898 5.77734C15.5898 5.77734 15.5898 8.21094 15.2617 9.38672C15.0977 10.043 14.5781 10.5352 13.9492 10.6992C12.7734 11 8.125 11 8.125 11C8.125 11 3.44922 11 2.27344 10.6992C1.64453 10.5352 1.125 10.043 0.960938 9.38672C0.632812 8.21094 0.632812 5.77734 0.632812 5.77734C0.632812 5.77734 0.632812 3.31641 0.960938 2.16797C1.125 1.51172 1.64453 0.992188 2.27344 0.828125C3.44922 0.5 8.125 0.5 8.125 0.5C8.125 0.5 12.7734 0.5 13.9492 0.828125C14.5781 0.992188 15.0977 1.51172 15.2617 2.16797ZM6.59375 7.99219L10.4766 5.77734L6.59375 3.5625V7.99219Z" fill="white"/>
</svg>
