<svg width="24" height="24" viewBox="0 0 24 24" fill="none" xmlns="http://www.w3.org/2000/svg">
<g id="mdi:apple">
<path id="Vector" d="M19.8135 20.9986C18.8176 22.4865 17.7617 23.9384 16.1538 23.9624C14.5459 23.9984 14.0299 23.0145 12.206 23.0145C10.3702 23.0145 9.80619 23.9384 8.28229 23.9984C6.7104 24.0584 5.52247 22.4145 4.51454 20.9626C2.46268 17.9988 0.890782 12.5392 3.00264 8.86741C4.04657 7.04353 5.91845 5.89161 7.94631 5.85561C9.48221 5.83161 10.9461 6.89954 11.8941 6.89954C12.83 6.89954 14.6059 5.61563 16.4657 5.80761C17.2457 5.84361 19.4296 6.11959 20.8335 8.18346C20.7255 8.25545 18.2296 9.71935 18.2536 12.7552C18.2896 16.3789 21.4334 17.5908 21.4694 17.6028C21.4334 17.6868 20.9654 19.3307 19.8135 20.9986ZM12.962 1.79988C13.8379 0.803947 15.2898 0.0479968 16.4897 0C16.6457 1.40391 16.0818 2.81981 15.2418 3.82775C14.4139 4.84768 13.046 5.63963 11.7021 5.53163C11.5221 4.15172 12.194 2.71182 12.962 1.79988Z" fill="#313638"/>
</g>
</svg>
