<svg width="18" height="14" viewBox="0 0 18 14" fill="none" xmlns="http://www.w3.org/2000/svg">
<path id="Vector" d="M16.8203 0.428695C16.5889 0.462053 16.3756 0.572517 16.2149 0.742194C12.7285 4.23612 9.55223 7.68736 6.14041 11.141L1.68687 7.58462C1.58041 7.49943 1.45821 7.43605 1.32725 7.39809C1.19629 7.36014 1.05914 7.34833 0.923621 7.36339C0.788104 7.37844 0.65688 7.42005 0.53744 7.48582C0.418 7.55158 0.312685 7.64023 0.227508 7.7467C0.14233 7.85317 0.0789597 7.97537 0.0410143 8.10633C0.00306885 8.23729 -0.00870821 8.37446 0.00635559 8.50998C0.0214194 8.64549 0.0630288 8.77671 0.128808 8.89615C0.194588 9.01558 0.283249 9.12089 0.389728 9.20606L5.57832 13.3569C5.77904 13.5156 6.03131 13.5945 6.28668 13.5786C6.54206 13.5626 6.78254 13.4529 6.96194 13.2704C10.6729 9.55148 14.0167 5.87772 17.685 2.20146C17.842 2.04912 17.9468 1.8511 17.9845 1.63565C18.0222 1.4202 17.9908 1.19835 17.8949 1.00177C17.799 0.80519 17.6435 0.643928 17.4505 0.541014C17.2575 0.438099 17.0369 0.398785 16.8203 0.428695Z" fill="#305C45"/>
</svg>
