<svg width="24" height="24" viewBox="0 0 24 24" fill="none" xmlns="http://www.w3.org/2000/svg">
<g id="flat-color-icons:google" clip-path="url(#clip0_527_1652)">
<path id="Vector" d="M23.7666 9.6498H22.8V9.6H12V14.4H18.7818C17.7924 17.1942 15.1338 19.2 12 19.2C8.0238 19.2 4.8 15.9762 4.8 12C4.8 8.0238 8.0238 4.8 12 4.8C13.8354 4.8 15.5052 5.4924 16.7766 6.6234L20.1708 3.2292C18.0276 1.2318 15.1608 0 12 0C5.373 0 0 5.373 0 12C0 18.627 5.373 24 12 24C18.627 24 24 18.627 24 12C24 11.1954 23.9172 10.41 23.7666 9.6498Z" fill="#FFC107"/>
<path id="Vector_2" d="M1.3836 6.4146L5.3262 9.306C6.393 6.6648 8.9766 4.8 12 4.8C13.8354 4.8 15.5052 5.4924 16.7766 6.6234L20.1708 3.2292C18.0276 1.2318 15.1608 0 12 0C7.3908 0 3.3936 2.6022 1.3836 6.4146Z" fill="#FF3D00"/>
<path id="Vector_3" d="M12 24.0002C15.0996 24.0002 17.916 22.814 20.0454 20.885L16.3314 17.7422C15.0861 18.6892 13.5645 19.2015 12 19.2002C8.8788 19.2002 6.2286 17.21 5.2302 14.4326L1.317 17.4476C3.303 21.3338 7.3362 24.0002 12 24.0002Z" fill="#4CAF50"/>
<path id="Vector_4" d="M23.7666 9.64941H22.8V9.59961H12V14.3996H18.7818C18.3085 15.7295 17.456 16.8915 16.3296 17.7422L16.3314 17.741L20.0454 20.8838C19.7826 21.1226 24 17.9996 24 11.9996C24 11.195 23.9172 10.4096 23.7666 9.64941Z" fill="#1976D2"/>
</g>
<defs>
<clipPath id="clip0_527_1652">
<rect width="24" height="24" fill="white"/>
</clipPath>
</defs>
</svg>
