<svg width="17" height="16" viewBox="0 0 17 16" fill="none" xmlns="http://www.w3.org/2000/svg">
<path d="M8.03489 16C4.14737 16 0.345049 14.156 0.184965 14.0775C0.0484421 14.0106 -0.0244994 13.8592 0.00745281 13.7107L2.92221 0.260459C2.95513 0.108444 3.08971 0 3.24528 0H13.2796C13.4351 0 13.5697 0.108444 13.6026 0.260459L16.5174 13.7107C16.55 13.8621 16.4735 14.0159 16.3328 14.0808C16.1633 14.1592 12.1309 16 8.03489 16ZM0.709434 13.5921C1.59248 13.9885 4.83547 15.339 8.03489 15.339C11.4322 15.339 14.8856 13.9797 15.8141 13.5862L13.013 0.660992H3.51187L0.709434 13.5921Z" fill="#313638"/>
<path d="M13.9583 2.41125H2.56653V3.07225H13.9583V2.41125Z" fill="#313638"/>
</svg>
