<svg width="16" height="19" viewBox="0 0 16 19" fill="none" xmlns="http://www.w3.org/2000/svg">
<path d="M7.3536 3.5059L7.95025 3.85037L11.8948 2.81999C12.0434 2.78017 12.2318 2.88895 12.2716 3.03755L13.2259 6.89626L13.8539 7.25887C13.9796 7.33139 14.0326 7.52952 13.942 7.68654L7.7233 18.4576C7.63264 18.6146 7.45264 18.6363 7.32703 18.5638L0.826691 14.8108C0.669678 14.7202 0.598458 14.5535 0.68911 14.3964L6.90781 3.62535C6.99846 3.46833 7.19659 3.41524 7.3536 3.5059ZM7.76765 4.45674L7.29661 4.18478L1.38613 14.422L7.35262 17.8668L13.2631 7.62954L12.8235 7.37572C12.7607 7.33946 12.6665 7.28507 12.6713 7.20413L11.7568 3.49402L8.01045 4.47131C7.94279 4.51599 7.83045 4.493 7.76765 4.45674Z" fill="black"/>
<path d="M10.4067 5.68737C10.7522 5.8868 10.9937 6.19372 11.0999 6.58998C11.1928 6.93671 11.1371 7.32326 10.9376 7.66869C10.7382 8.01412 10.4313 8.25562 10.0846 8.34853C9.68829 8.45471 9.30174 8.39901 8.95631 8.19958C8.61089 8.00015 8.36938 7.69323 8.29461 7.3151C8.2017 6.96837 8.22599 6.56369 8.42542 6.21826C8.62486 5.87283 8.96317 5.64946 9.3099 5.55655C9.67476 5.43224 10.0613 5.48794 10.4067 5.68737ZM10.5055 6.74925C10.4705 6.51971 10.3183 6.34813 10.0985 6.22122C9.91011 6.11243 9.68543 6.06646 9.46917 6.15095C9.27104 6.20404 9.06805 6.33806 8.95927 6.52648C8.83235 6.7463 8.83591 6.9577 8.87087 7.18723C8.92396 7.38537 9.07611 7.55695 9.26453 7.66574C9.48435 7.79265 9.70902 7.83862 9.90716 7.78554C10.1234 7.70104 10.3083 7.59842 10.4352 7.3786C10.544 7.19019 10.5585 6.94738 10.5055 6.74925Z" fill="black"/>
<path d="M6.72155 8.08167C6.75781 8.01886 6.85687 7.99232 6.95108 8.04671C7.01389 8.08297 7.04043 8.18203 7.00417 8.24484L3.39624 14.494C3.34185 14.5882 3.26091 14.5833 3.19811 14.547C3.1039 14.4927 3.05922 14.425 3.11361 14.3308L6.72155 8.08167Z" fill="black"/>
<path d="M7.35668 8.86707C7.39294 8.80426 7.492 8.77772 7.55481 8.81398C7.64902 8.86837 7.67556 8.96743 7.6393 9.03024L4.03137 15.2794C3.99511 15.3422 3.89604 15.3687 3.80184 15.3143C3.73903 15.2781 3.71249 15.179 3.74875 15.1162L7.35668 8.86707Z" fill="black"/>
<path d="M8.32311 9.00629C8.35937 8.94348 8.45844 8.91694 8.52124 8.9532C8.58405 8.98946 8.61059 9.08852 8.57433 9.15133L4.9664 15.4005C4.91201 15.4947 4.83107 15.4898 4.76827 15.4535C4.70546 15.4173 4.66079 15.3496 4.71518 15.2554L8.32311 9.00629Z" fill="black"/>
</svg>
